<svg width="210" height="70" viewBox="0 0 210 70" xmlns="http://www.w3.org/2000/svg">
  <defs>
    <filter id="shadow" x="-20%" y="-20%" width="140%" height="140%">
      <feDropShadow dx="0" dy="4" stdDeviation="5" flood-color="#ffffff" flood-opacity="0.3"/>
    </filter>
    <linearGradient id="grad" x1="0%" y1="0%" x2="100%" y2="100%">
      <stop offset="0%" stop-color="#252525"/>
      <stop offset="100%" stop-color="#151515"/>
    </linearGradient>
    <linearGradient id="glow" x1="0%" y1="0%" x2="100%" y2="100%">
      <stop offset="0%" stop-color="#ffffff" stop-opacity="0.9"/>
      <stop offset="100%" stop-color="#ffffff" stop-opacity="0.3"/>
    </linearGradient>
  </defs>
  <rect x="10" y="10" width="190" height="50" rx="14" fill="url(#grad)" filter="url(#shadow)"/>
  <rect x="10.5" y="10.5" width="189" height="49" rx="13.5" fill="none" stroke="url(#glow)" stroke-width="1.5"/>
  
  <svg x="25" y="23" width="24" height="24" viewBox="0 0 24 24" fill="white">
    <path d="M12 .297c-6.63 0-12 5.373-12 12 0 5.303 3.438 9.8 8.205 11.385.6.113.82-.258.82-.577 0-.285-.01-1.04-.015-2.04-3.338.724-4.042-1.61-4.042-1.61C4.422 18.07 3.633 17.7 3.633 17.7c-1.087-.744.084-.729.084-.729 1.205.084 1.838 1.236 1.838 1.236 1.07 1.835 2.809 1.305 3.495.998.108-.776.417-1.305.76-1.605-2.665-.3-5.466-1.332-5.466-5.93 0-1.31.465-2.38 1.235-3.22-.135-.303-.54-1.523.105-3.176 0 0 1.005-.322 3.3 1.23.96-.267 1.98-.399 3-.405 1.02.006 2.04.138 3 .405 2.28-1.552 3.285-1.23 3.285-1.23.645 1.653.24 2.873.12 3.176.765.84 1.23 1.91 1.23 3.22 0 4.61-2.805 5.625-5.475 5.92.42.36.81 1.096.81 2.22 0 1.606-.015 2.896-.015 3.286 0 .315.21.69.825.57C20.565 22.092 24 17.592 24 12.297c0-6.627-5.373-12-12-12"/>
  </svg>
  
  <text x="62" y="36" font-family="'Inter', 'Segoe UI', sans-serif" font-weight="600" font-size="14.5" fill="#ffffff" dominant-baseline="middle" letter-spacing="0.5">GitHub</text>
</svg>