<svg width="210" height="70" viewBox="0 0 210 70" xmlns="http://www.w3.org/2000/svg">
  <defs>
    <filter id="shadow" x="-20%" y="-20%" width="140%" height="140%">
      <feDropShadow dx="0" dy="4" stdDeviation="5" flood-color="#EA4335" flood-opacity="0.3"/>
    </filter>
    <linearGradient id="grad" x1="0%" y1="0%" x2="100%" y2="100%">
      <stop offset="0%" stop-color="#252525"/>
      <stop offset="100%" stop-color="#151515"/>
    </linearGradient>
    <linearGradient id="glow" x1="0%" y1="0%" x2="100%" y2="100%">
      <stop offset="0%" stop-color="#EA4335" stop-opacity="0.9"/>
      <stop offset="100%" stop-color="#EA4335" stop-opacity="0.3"/>
    </linearGradient>
  </defs>
  <rect x="10" y="10" width="190" height="50" rx="14" fill="url(#grad)" filter="url(#shadow)"/>
  <rect x="10.5" y="10.5" width="189" height="49" rx="13.5" fill="none" stroke="url(#glow)" stroke-width="1.5"/>
  
  <svg x="25" y="23" width="24" height="24" viewBox="0 0 24 24" fill="white">
    <path d="M24 5.457v13.909c0 .904-.732 1.636-1.636 1.636h-3.819V11.73L12 16.64l-6.545-4.91v9.273H1.636A1.636 1.636 0 0 1 0 19.366V5.457c0-2.023 2.309-3.178 3.927-1.964L5.455 4.64 12 9.548l6.545-4.91 1.528-1.145C21.69 2.28 24 3.434 24 5.457z"/>
  </svg>
  
  <text x="62" y="36" font-family="'Inter', 'Segoe UI', sans-serif" font-weight="600" font-size="14.5" fill="#ffffff" dominant-baseline="middle" letter-spacing="0.5">Gmail</text>
</svg>