<svg width="210" height="70" viewBox="0 0 210 70" xmlns="http://www.w3.org/2000/svg">
  <defs>
    <filter id="shadow" x="-20%" y="-20%" width="140%" height="140%">
      <feDropShadow dx="0" dy="4" stdDeviation="5" flood-color="#00EA64" flood-opacity="0.3"/>
    </filter>
    <linearGradient id="grad" x1="0%" y1="0%" x2="100%" y2="100%">
      <stop offset="0%" stop-color="#252525"/>
      <stop offset="100%" stop-color="#151515"/>
    </linearGradient>
    <linearGradient id="glow" x1="0%" y1="0%" x2="100%" y2="100%">
      <stop offset="0%" stop-color="#00EA64" stop-opacity="0.9"/>
      <stop offset="100%" stop-color="#00EA64" stop-opacity="0.3"/>
    </linearGradient>
  </defs>
  <rect x="10" y="10" width="190" height="50" rx="14" fill="url(#grad)" filter="url(#shadow)"/>
  <rect x="10.5" y="10.5" width="189" height="49" rx="13.5" fill="none" stroke="url(#glow)" stroke-width="1.5"/>
  
  <svg x="25" y="23" width="24" height="24" viewBox="0 0 24 24" fill="white">
    <path d="M0 0v24h24V0zm9.95 8.002h1.805c.061 0 .111.05.111.111v7.767c0 .061-.05.111-.11.111H9.95c-.061 0-.111-.05-.111-.11v-2.87H7.894v2.87c0 .06-.05.11-.11.11H5.976a.11.11 0 01-.11-.11V8.112c0-.06.05-.11.11-.11h1.806c.061 0 .11.05.11.11v2.869H9.84v-2.87c0-.06.05-.11.11-.11zm2.999 0h5.778c.061 0 .111.05.111.11v7.767a.11.11 0 01-.11.112h-5.78a.11.11 0 01-.11-.11V8.111c0-.06.05-.11.11-.11z"/>
  </svg>
  
  <text x="62" y="36" font-family="'Inter', 'Segoe UI', sans-serif" font-weight="600" font-size="14.5" fill="#ffffff" dominant-baseline="middle" letter-spacing="0.5">HackerRank</text>
</svg>