<svg width="210" height="70" viewBox="0 0 210 70" xmlns="http://www.w3.org/2000/svg">
  <defs>
    <filter id="shadow" x="-20%" y="-20%" width="140%" height="140%">
      <feDropShadow dx="0" dy="4" stdDeviation="5" flood-color="#0A66C2" flood-opacity="0.3"/>
    </filter>
    <linearGradient id="grad" x1="0%" y1="0%" x2="100%" y2="100%">
      <stop offset="0%" stop-color="#252525"/>
      <stop offset="100%" stop-color="#151515"/>
    </linearGradient>
    <linearGradient id="glow" x1="0%" y1="0%" x2="100%" y2="100%">
      <stop offset="0%" stop-color="#0A66C2" stop-opacity="0.9"/>
      <stop offset="100%" stop-color="#0A66C2" stop-opacity="0.3"/>
    </linearGradient>
  </defs>
  <rect x="10" y="10" width="190" height="50" rx="14" fill="url(#grad)" filter="url(#shadow)"/>
  <rect x="10.5" y="10.5" width="189" height="49" rx="13.5" fill="none" stroke="url(#glow)" stroke-width="1.5"/>
  
  <svg x="25" y="23" width="24" height="24" viewBox="0 0 24 24" fill="white">
    <path d="M20.447 20.452h-3.554v-5.569c0-1.328-.027-3.037-1.852-3.037-1.853 0-2.136 1.445-2.136 2.939v5.667H9.351V9h3.414v1.561h.046c.477-.9 1.637-1.85 3.37-1.85 3.601 0 4.267 2.37 4.267 5.455v6.286zM5.337 7.433c-1.144 0-2.063-.926-2.063-2.065 0-1.138.92-2.063 2.063-2.063 1.14 0 2.064.925 2.064 2.063 0 1.139-.925 2.065-2.064 2.065zm1.782 13.019H3.555V9h3.564v11.452zM22.225 0H1.771C.792 0 0 .774 0 1.729v20.542C0 23.227.792 24 1.771 24h20.451C23.2 24 24 23.227 24 22.271V1.729C24 .774 23.2 0 22.222 0h.003z"/>
  </svg>
  
  <text x="62" y="36" font-family="'Inter', 'Segoe UI', sans-serif" font-weight="600" font-size="14.5" fill="#ffffff" dominant-baseline="middle" letter-spacing="0.5">LinkedIn</text>
</svg>